<?xml version="1.0" encoding="UTF-8"?>
<svg xmlns="http://www.w3.org/2000/svg" xmlns:xlink="http://www.w3.org/1999/xlink" width="41px" height="px" viewBox="0 0 41 41" version="1.1">
<defs>
<clipPath id="clip1">
  <path d="M 20.5 0 C 9.179688 0 0 9.179688 0 20.5 C 0 31.820312 9.179688 41 20.5 41 C 31.820312 41 41 31.820312 41 20.5 C 41 9.179688 31.820312 0 20.5 0 Z M 20.5 0 "/>
</clipPath>
<clipPath id="clip2">
  <path d="M 7.835938 8.816406 L 32.84375 8.816406 L 32.84375 33.828125 L 7.835938 33.828125 Z M 7.835938 8.816406 "/>
</clipPath>
</defs>
<g id="surface1">
<g clip-path="url(#clip1)" clip-rule="nonzero">
<path style="fill:none;stroke-width:26;stroke-linecap:butt;stroke-linejoin:miter;stroke:rgb(100%,100%,100%);stroke-opacity:1;stroke-miterlimit:4;" d="M 249.999994 -0.000006 C 111.947403 -0.000006 -0.000006 111.947403 -0.000006 249.999994 C -0.000006 388.052585 111.947403 499.999994 249.999994 499.999994 C 388.052585 499.999994 499.999994 388.052585 499.999994 249.999994 C 499.999994 111.947403 388.052585 -0.000006 249.999994 -0.000006 Z M 249.999994 -0.000006 " transform="matrix(0.082,0,0,0.082,0.000000492,0.000000492)"/>
</g>
<g clip-path="url(#clip2)" clip-rule="nonzero">
<path style=" stroke:none;fill-rule:nonzero;fill:rgb(100%,100%,100%);fill-opacity:1;" d="M 15.335938 28.824219 C 13.957031 28.824219 12.847656 29.945312 12.847656 31.328125 C 12.847656 32.710938 13.957031 33.828125 15.335938 33.828125 C 16.71875 33.828125 17.839844 32.710938 17.839844 31.328125 C 17.839844 29.945312 16.71875 28.824219 15.335938 28.824219 Z M 7.835938 8.816406 L 7.835938 11.320312 L 10.335938 11.320312 L 14.832031 20.804688 L 13.144531 23.867188 C 12.949219 24.230469 12.835938 24.636719 12.835938 25.074219 C 12.835938 26.457031 13.957031 27.574219 15.335938 27.574219 L 30.34375 27.574219 L 30.34375 25.074219 L 15.867188 25.074219 C 15.695312 25.074219 15.554688 24.9375 15.554688 24.761719 C 15.554688 24.707031 15.570312 24.65625 15.59375 24.613281 L 16.710938 22.574219 L 26.027344 22.574219 C 26.96875 22.574219 27.785156 22.054688 28.21875 21.285156 L 32.6875 13.171875 C 32.789062 12.996094 32.84375 12.789062 32.84375 12.570312 C 32.84375 11.875 32.28125 11.320312 31.59375 11.320312 L 13.105469 11.320312 L 11.917969 8.816406 Z M 27.84375 28.824219 C 26.460938 28.824219 25.355469 29.945312 25.355469 31.328125 C 25.355469 32.710938 26.460938 33.828125 27.84375 33.828125 C 29.222656 33.828125 30.34375 32.710938 30.34375 31.328125 C 30.34375 29.945312 29.222656 28.824219 27.84375 28.824219 Z M 27.84375 28.824219 "/>
</g>
</g>
</svg>
