<svg xmlns="http://www.w3.org/2000/svg" xmlns:xlink="http://www.w3.org/1999/xlink" width="180" zoomAndPan="magnify" viewBox="0 0 135 30.750001" height="41" preserveAspectRatio="xMidYMid meet" version="1.0"><defs><g/><clipPath id="3fd523db72"><path d="M 0.542969 0 L 134.453125 0 L 134.453125 30.503906 L 0.542969 30.503906 Z M 0.542969 0 " clip-rule="nonzero"/></clipPath><clipPath id="160c07bdf0"><path d="M 43 11 L 56.503906 11 L 56.503906 28 L 43 28 Z M 43 11 " clip-rule="nonzero"/></clipPath><clipPath id="0f23d3722d"><path d="M 28 17 L 46 17 L 46 30.503906 L 28 30.503906 Z M 28 17 " clip-rule="nonzero"/></clipPath><clipPath id="4b1efc6e5a"><path d="M 26.003906 2 L 40 2 L 40 20 L 26.003906 20 Z M 26.003906 2 " clip-rule="nonzero"/></clipPath></defs><g clip-path="url(#3fd523db72)"><path fill="#ffffff" d="M 0.542969 0 L 134.457031 0 L 134.457031 30.503906 L 0.542969 30.503906 Z M 0.542969 0 " fill-opacity="1" fill-rule="nonzero"/><path fill="#ffffff" d="M 0.542969 0 L 134.457031 0 L 134.457031 30.503906 L 0.542969 30.503906 Z M 0.542969 0 " fill-opacity="1" fill-rule="nonzero"/></g><path fill="#0097b2" d="M 52.769531 3.097656 L 50.960938 3.097656 C 50.542969 3.097656 50.207031 3.433594 50.207031 3.851562 L 50.207031 5.664062 C 50.207031 5.886719 50.105469 6.097656 49.933594 6.238281 L 48.867188 7.082031 C 48.6875 7.222656 48.460938 7.28125 48.226562 7.28125 C 48.226562 7.28125 48.222656 7.28125 48.222656 7.28125 L 43.753906 7.28125 C 43.523438 7.28125 43.308594 7.171875 43.164062 6.992188 L 41.695312 5.074219 C 41.453125 4.753906 41.320312 4.367188 41.324219 3.96875 L 41.324219 0.757812 C 41.324219 0.339844 40.988281 0.00390625 40.570312 0.00390625 L 37.523438 0.00390625 C 37.105469 0.00390625 36.769531 0.339844 36.769531 0.757812 L 36.769531 3.808594 C 36.769531 4.226562 37.105469 4.5625 37.523438 4.5625 C 37.523438 4.5625 38.621094 4.558594 39.535156 4.554688 C 40.304688 4.546875 41.027344 4.90625 41.5 5.511719 L 42.679688 7.050781 C 42.859375 7.289062 43.003906 7.726562 43.003906 8.023438 L 43.003906 12.492188 C 43.003906 12.910156 43.34375 13.246094 43.757812 13.246094 L 48.222656 13.246094 C 48.640625 13.246094 48.976562 12.910156 48.976562 12.492188 L 48.976562 8.023438 C 48.976562 8.003906 48.976562 7.980469 48.972656 7.960938 C 48.945312 7.660156 49.078125 7.363281 49.316406 7.175781 L 50.207031 6.46875 C 50.363281 6.347656 50.566406 6.328125 50.753906 6.382812 C 50.820312 6.402344 50.890625 6.414062 50.957031 6.414062 L 52.765625 6.414062 C 53.183594 6.414062 53.519531 6.078125 53.519531 5.660156 L 53.519531 3.851562 C 53.523438 3.433594 53.1875 3.097656 52.769531 3.097656 Z M 52.769531 3.097656 " fill-opacity="1" fill-rule="nonzero"/><path fill="#0097b2" d="M 47.421875 2.542969 C 47.421875 2.730469 47.386719 2.914062 47.3125 3.089844 C 47.238281 3.265625 47.136719 3.417969 47.003906 3.550781 C 46.867188 3.6875 46.714844 3.789062 46.539062 3.863281 C 46.363281 3.933594 46.179688 3.972656 45.992188 3.972656 C 45.800781 3.972656 45.617188 3.933594 45.445312 3.863281 C 45.269531 3.789062 45.113281 3.6875 44.980469 3.550781 C 44.84375 3.417969 44.742188 3.265625 44.667969 3.089844 C 44.597656 2.914062 44.5625 2.730469 44.5625 2.542969 C 44.5625 2.351562 44.597656 2.167969 44.667969 1.992188 C 44.742188 1.820312 44.84375 1.664062 44.980469 1.53125 C 45.113281 1.394531 45.269531 1.292969 45.445312 1.21875 C 45.617188 1.148438 45.800781 1.109375 45.992188 1.109375 C 46.179688 1.109375 46.363281 1.148438 46.539062 1.21875 C 46.714844 1.292969 46.867188 1.394531 47.003906 1.53125 C 47.136719 1.664062 47.238281 1.820312 47.3125 1.992188 C 47.386719 2.167969 47.421875 2.351562 47.421875 2.542969 Z M 47.421875 2.542969 " fill-opacity="1" fill-rule="nonzero"/><g clip-path="url(#160c07bdf0)"><path fill="#0097b2" d="M 53.332031 27.058594 L 53.332031 25.25 C 53.332031 24.832031 52.996094 24.496094 52.578125 24.496094 L 50.765625 24.496094 C 50.539062 24.496094 50.328125 24.394531 50.191406 24.222656 L 49.347656 23.15625 C 49.203125 22.976562 49.148438 22.75 49.148438 22.515625 C 49.148438 22.515625 49.148438 22.511719 49.148438 22.511719 L 49.148438 18.042969 C 49.148438 17.8125 49.257812 17.597656 49.4375 17.453125 L 51.355469 15.984375 C 51.671875 15.746094 52.058594 15.609375 52.460938 15.613281 L 55.671875 15.613281 C 56.089844 15.613281 56.425781 15.277344 56.425781 14.859375 L 56.425781 11.8125 C 56.425781 11.394531 56.089844 11.058594 55.671875 11.058594 L 52.621094 11.058594 C 52.203125 11.058594 51.867188 11.394531 51.867188 11.8125 C 51.867188 11.8125 51.871094 12.910156 51.875 13.824219 C 51.878906 14.59375 51.523438 15.316406 50.914062 15.789062 L 49.375 16.96875 C 49.140625 17.148438 48.699219 17.296875 48.402344 17.296875 L 43.941406 17.296875 C 43.523438 17.296875 43.1875 17.632812 43.1875 18.050781 L 43.1875 22.511719 C 43.1875 22.929688 43.523438 23.265625 43.941406 23.265625 L 48.402344 23.265625 C 48.425781 23.265625 48.445312 23.265625 48.46875 23.261719 C 48.769531 23.234375 49.066406 23.367188 49.25 23.605469 L 49.957031 24.496094 C 50.078125 24.652344 50.101562 24.855469 50.042969 25.042969 C 50.027344 25.109375 50.015625 25.179688 50.015625 25.246094 L 50.015625 27.054688 C 50.015625 27.472656 50.351562 27.808594 50.769531 27.808594 L 52.578125 27.808594 C 52.996094 27.8125 53.332031 27.476562 53.332031 27.058594 Z M 53.332031 27.058594 " fill-opacity="1" fill-rule="nonzero"/></g><path fill="#0097b2" d="M 55.316406 20.28125 C 55.316406 20.46875 55.28125 20.652344 55.207031 20.828125 C 55.136719 21.003906 55.03125 21.15625 54.898438 21.292969 C 54.765625 21.425781 54.609375 21.527344 54.433594 21.601562 C 54.257812 21.675781 54.078125 21.710938 53.886719 21.710938 C 53.699219 21.710938 53.515625 21.675781 53.339844 21.601562 C 53.164062 21.527344 53.007812 21.425781 52.875 21.292969 C 52.742188 21.15625 52.636719 21.003906 52.566406 20.828125 C 52.492188 20.652344 52.457031 20.46875 52.457031 20.28125 C 52.457031 20.089844 52.492188 19.90625 52.566406 19.734375 C 52.636719 19.558594 52.742188 19.402344 52.875 19.269531 C 53.007812 19.136719 53.164062 19.03125 53.339844 18.957031 C 53.515625 18.886719 53.699219 18.851562 53.886719 18.851562 C 54.078125 18.851562 54.257812 18.886719 54.433594 18.957031 C 54.609375 19.03125 54.765625 19.136719 54.898438 19.269531 C 55.03125 19.402344 55.136719 19.558594 55.207031 19.734375 C 55.28125 19.90625 55.316406 20.089844 55.316406 20.28125 Z M 55.316406 20.28125 " fill-opacity="1" fill-rule="nonzero"/><g clip-path="url(#0f23d3722d)"><path fill="#0097b2" d="M 29.148438 27.40625 L 30.957031 27.40625 C 31.375 27.40625 31.710938 27.070312 31.710938 26.652344 L 31.710938 24.835938 C 31.710938 24.613281 31.816406 24.402344 31.988281 24.265625 L 33.050781 23.421875 C 33.230469 23.277344 33.460938 23.222656 33.691406 23.222656 C 33.691406 23.222656 33.695312 23.222656 33.695312 23.222656 L 38.164062 23.222656 C 38.398438 23.222656 38.613281 23.328125 38.753906 23.511719 L 40.222656 25.429688 C 40.464844 25.746094 40.597656 26.132812 40.59375 26.535156 L 40.59375 29.742188 C 40.59375 30.160156 40.929688 30.496094 41.347656 30.496094 L 44.398438 30.496094 C 44.816406 30.496094 45.152344 30.160156 45.152344 29.742188 L 45.152344 26.695312 C 45.152344 26.277344 44.816406 25.941406 44.398438 25.941406 C 44.398438 25.941406 43.296875 25.945312 42.386719 25.949219 C 41.613281 25.953125 40.890625 25.597656 40.421875 24.988281 L 39.242188 23.449219 C 39.058594 23.214844 38.914062 22.773438 38.914062 22.476562 L 38.914062 18.015625 C 38.914062 17.597656 38.578125 17.261719 38.160156 17.261719 L 33.695312 17.261719 C 33.277344 17.261719 32.941406 17.597656 32.941406 18.015625 L 32.941406 22.476562 C 32.941406 22.5 32.941406 22.519531 32.949219 22.542969 C 32.972656 22.84375 32.839844 23.140625 32.601562 23.324219 L 31.710938 24.03125 C 31.554688 24.152344 31.355469 24.175781 31.164062 24.117188 C 31.097656 24.101562 31.03125 24.089844 30.960938 24.089844 L 29.152344 24.089844 C 28.734375 24.089844 28.398438 24.425781 28.398438 24.84375 L 28.398438 26.652344 C 28.394531 27.070312 28.734375 27.40625 29.148438 27.40625 Z M 29.148438 27.40625 " fill-opacity="1" fill-rule="nonzero"/></g><path fill="#0097b2" d="M 37.359375 27.960938 C 37.359375 28.148438 37.320312 28.332031 37.25 28.507812 C 37.175781 28.683594 37.074219 28.839844 36.941406 28.972656 C 36.804688 29.105469 36.652344 29.210938 36.476562 29.28125 C 36.300781 29.355469 36.117188 29.390625 35.929688 29.390625 C 35.738281 29.390625 35.554688 29.355469 35.382812 29.28125 C 35.207031 29.210938 35.050781 29.105469 34.917969 28.972656 C 34.78125 28.839844 34.679688 28.683594 34.605469 28.507812 C 34.535156 28.332031 34.5 28.148438 34.5 27.960938 C 34.5 27.769531 34.535156 27.589844 34.605469 27.414062 C 34.679688 27.238281 34.78125 27.082031 34.917969 26.949219 C 35.050781 26.816406 35.207031 26.710938 35.382812 26.640625 C 35.554688 26.566406 35.738281 26.53125 35.929688 26.53125 C 36.117188 26.53125 36.300781 26.566406 36.476562 26.640625 C 36.652344 26.710938 36.804688 26.816406 36.941406 26.949219 C 37.074219 27.082031 37.175781 27.238281 37.25 27.414062 C 37.320312 27.589844 37.359375 27.769531 37.359375 27.960938 Z M 37.359375 27.960938 " fill-opacity="1" fill-rule="nonzero"/><g clip-path="url(#4b1efc6e5a)"><path fill="#ffbd59" d="M 29.097656 3.4375 L 29.097656 5.246094 C 29.097656 5.664062 29.433594 6 29.851562 6 L 31.664062 6 C 31.886719 6 32.097656 6.105469 32.238281 6.277344 L 33.082031 7.339844 C 33.222656 7.519531 33.277344 7.75 33.277344 7.980469 C 33.277344 7.980469 33.277344 7.984375 33.277344 7.984375 L 33.277344 12.453125 C 33.277344 12.6875 33.171875 12.902344 32.992188 13.042969 L 31.074219 14.511719 C 30.753906 14.753906 30.367188 14.886719 29.964844 14.882812 L 26.757812 14.882812 C 26.339844 14.882812 26.003906 15.21875 26.003906 15.636719 L 26.003906 18.6875 C 26.003906 19.105469 26.339844 19.441406 26.757812 19.441406 L 29.804688 19.441406 C 30.21875 19.441406 30.558594 19.105469 30.558594 18.6875 C 30.558594 18.6875 30.550781 17.589844 30.546875 16.675781 C 30.542969 15.902344 30.902344 15.179688 31.507812 14.710938 L 33.046875 13.53125 C 33.285156 13.347656 33.722656 13.203125 34.019531 13.203125 L 38.488281 13.203125 C 38.90625 13.203125 39.242188 12.867188 39.242188 12.449219 L 39.242188 7.984375 C 39.242188 7.566406 38.90625 7.230469 38.488281 7.230469 L 34.023438 7.230469 C 34.003906 7.230469 33.980469 7.230469 33.960938 7.238281 C 33.65625 7.261719 33.359375 7.128906 33.175781 6.890625 L 32.46875 6 C 32.347656 5.84375 32.328125 5.644531 32.382812 5.453125 C 32.398438 5.386719 32.414062 5.320312 32.414062 5.25 L 32.414062 3.441406 C 32.414062 3.023438 32.078125 2.6875 31.660156 2.6875 L 29.851562 2.6875 C 29.433594 2.683594 29.097656 3.023438 29.097656 3.4375 Z M 29.097656 3.4375 " fill-opacity="1" fill-rule="nonzero"/></g><path fill="#ffbd59" d="M 29.972656 10.21875 C 29.972656 10.40625 29.933594 10.589844 29.863281 10.765625 C 29.789062 10.941406 29.6875 11.09375 29.550781 11.230469 C 29.417969 11.363281 29.261719 11.464844 29.089844 11.539062 C 28.914062 11.613281 28.730469 11.648438 28.539062 11.648438 C 28.351562 11.648438 28.167969 11.613281 27.992188 11.539062 C 27.816406 11.464844 27.664062 11.363281 27.53125 11.230469 C 27.394531 11.09375 27.292969 10.941406 27.21875 10.765625 C 27.148438 10.589844 27.109375 10.40625 27.109375 10.21875 C 27.109375 10.027344 27.148438 9.84375 27.21875 9.671875 C 27.292969 9.496094 27.394531 9.339844 27.53125 9.207031 C 27.664062 9.070312 27.816406 8.96875 27.992188 8.894531 C 28.167969 8.824219 28.351562 8.789062 28.539062 8.789062 C 28.730469 8.789062 28.914062 8.824219 29.089844 8.894531 C 29.261719 8.96875 29.417969 9.070312 29.550781 9.207031 C 29.6875 9.339844 29.789062 9.496094 29.863281 9.671875 C 29.933594 9.84375 29.972656 10.027344 29.972656 10.21875 Z M 29.972656 10.21875 " fill-opacity="1" fill-rule="nonzero"/><g fill="#0097b2" fill-opacity="1"><g transform="translate(59.068587, 19.303403)"><g><path d="M 9.140625 -17.578125 C 10.015625 -17.578125 10.832031 -17.320312 11.59375 -16.8125 C 12.351562 -16.3125 12.96875 -15.632812 13.4375 -14.78125 C 13.90625 -13.9375 14.140625 -12.984375 14.140625 -11.921875 C 14.140625 -10.890625 13.90625 -9.945312 13.4375 -9.09375 C 12.96875 -8.238281 12.351562 -7.554688 11.59375 -7.046875 C 10.832031 -6.535156 10.015625 -6.28125 9.140625 -6.28125 L 4.515625 -6.28125 L 4.765625 -6.734375 L 4.765625 -1.53125 C 4.765625 -1.09375 4.628906 -0.726562 4.359375 -0.4375 C 4.097656 -0.144531 3.75 0 3.3125 0 C 2.894531 0 2.550781 -0.144531 2.28125 -0.4375 C 2.019531 -0.726562 1.890625 -1.09375 1.890625 -1.53125 L 1.890625 -16.046875 C 1.890625 -16.484375 2.035156 -16.847656 2.328125 -17.140625 C 2.617188 -17.429688 2.984375 -17.578125 3.421875 -17.578125 Z M 9.140625 -9.140625 C 9.453125 -9.140625 9.757812 -9.269531 10.0625 -9.53125 C 10.363281 -9.800781 10.613281 -10.148438 10.8125 -10.578125 C 11.019531 -11.003906 11.125 -11.453125 11.125 -11.921875 C 11.125 -12.410156 11.019531 -12.863281 10.8125 -13.28125 C 10.613281 -13.695312 10.363281 -14.035156 10.0625 -14.296875 C 9.757812 -14.554688 9.453125 -14.6875 9.140625 -14.6875 L 4.46875 -14.6875 L 4.765625 -15.140625 L 4.765625 -8.734375 L 4.5 -9.140625 Z M 9.140625 -9.140625 "/></g></g></g><g fill="#0097b2" fill-opacity="1"><g transform="translate(74.207515, 19.303403)"><g><path d="M 5.015625 -1.53125 C 5.015625 -1.09375 4.851562 -0.726562 4.53125 -0.4375 C 4.21875 -0.144531 3.851562 0 3.4375 0 C 2.96875 0 2.59375 -0.144531 2.3125 -0.4375 C 2.03125 -0.726562 1.890625 -1.09375 1.890625 -1.53125 L 1.890625 -16.046875 C 1.890625 -16.484375 2.035156 -16.847656 2.328125 -17.140625 C 2.628906 -17.429688 3.015625 -17.578125 3.484375 -17.578125 C 3.890625 -17.578125 4.242188 -17.429688 4.546875 -17.140625 C 4.859375 -16.847656 5.015625 -16.484375 5.015625 -16.046875 Z M 5.015625 -1.53125 "/></g></g></g><g fill="#0097b2" fill-opacity="1"><g transform="translate(81.111672, 19.303403)"><g><path d="M 15.21875 -17.578125 C 15.613281 -17.578125 15.9375 -17.441406 16.1875 -17.171875 C 16.445312 -16.898438 16.578125 -16.566406 16.578125 -16.171875 L 16.578125 -1.53125 C 16.578125 -1.09375 16.425781 -0.726562 16.125 -0.4375 C 15.832031 -0.144531 15.472656 0 15.046875 0 C 14.828125 0 14.601562 -0.0351562 14.375 -0.109375 C 14.144531 -0.179688 13.972656 -0.285156 13.859375 -0.421875 L 4 -12.953125 L 4.640625 -13.359375 L 4.640625 -1.40625 C 4.640625 -1 4.507812 -0.660156 4.25 -0.390625 C 3.988281 -0.128906 3.648438 0 3.234375 0 C 2.835938 0 2.515625 -0.128906 2.265625 -0.390625 C 2.015625 -0.660156 1.890625 -1 1.890625 -1.40625 L 1.890625 -16.046875 C 1.890625 -16.484375 2.035156 -16.847656 2.328125 -17.140625 C 2.617188 -17.429688 2.984375 -17.578125 3.421875 -17.578125 C 3.648438 -17.578125 3.890625 -17.53125 4.140625 -17.4375 C 4.390625 -17.34375 4.578125 -17.207031 4.703125 -17.03125 L 14.265625 -4.828125 L 13.828125 -4.515625 L 13.828125 -16.171875 C 13.828125 -16.566406 13.953125 -16.898438 14.203125 -17.171875 C 14.460938 -17.441406 14.800781 -17.578125 15.21875 -17.578125 Z M 15.21875 -17.578125 "/></g></g></g><g fill="#0097b2" fill-opacity="1"><g transform="translate(99.564586, 19.303403)"><g><path d="M 10.171875 0.25 C 8.898438 0.25 7.710938 0.015625 6.609375 -0.453125 C 5.503906 -0.921875 4.53125 -1.566406 3.6875 -2.390625 C 2.851562 -3.222656 2.195312 -4.179688 1.71875 -5.265625 C 1.238281 -6.359375 1 -7.53125 1 -8.78125 C 1 -10.039062 1.238281 -11.210938 1.71875 -12.296875 C 2.195312 -13.390625 2.851562 -14.347656 3.6875 -15.171875 C 4.53125 -16.003906 5.503906 -16.65625 6.609375 -17.125 C 7.710938 -17.59375 8.898438 -17.828125 10.171875 -17.828125 C 10.953125 -17.828125 11.710938 -17.742188 12.453125 -17.578125 C 13.191406 -17.410156 13.867188 -17.160156 14.484375 -16.828125 C 14.734375 -16.691406 14.921875 -16.507812 15.046875 -16.28125 C 15.171875 -16.050781 15.234375 -15.820312 15.234375 -15.59375 C 15.234375 -15.1875 15.097656 -14.820312 14.828125 -14.5 C 14.566406 -14.1875 14.226562 -14.03125 13.8125 -14.03125 C 13.675781 -14.03125 13.535156 -14.046875 13.390625 -14.078125 C 13.253906 -14.117188 13.117188 -14.171875 12.984375 -14.234375 C 12.566406 -14.421875 12.125 -14.5625 11.65625 -14.65625 C 11.1875 -14.757812 10.691406 -14.8125 10.171875 -14.8125 C 9.078125 -14.8125 8.082031 -14.539062 7.1875 -14 C 6.289062 -13.457031 5.578125 -12.726562 5.046875 -11.8125 C 4.523438 -10.90625 4.265625 -9.894531 4.265625 -8.78125 C 4.265625 -7.695312 4.523438 -6.691406 5.046875 -5.765625 C 5.578125 -4.847656 6.289062 -4.117188 7.1875 -3.578125 C 8.082031 -3.035156 9.078125 -2.765625 10.171875 -2.765625 C 10.671875 -2.765625 11.222656 -2.8125 11.828125 -2.90625 C 12.429688 -3.007812 12.925781 -3.144531 13.3125 -3.3125 L 13.078125 -2.5625 L 13.078125 -6.859375 L 13.515625 -6.484375 L 10.71875 -6.484375 C 10.28125 -6.484375 9.914062 -6.625 9.625 -6.90625 C 9.332031 -7.1875 9.1875 -7.546875 9.1875 -7.984375 C 9.1875 -8.421875 9.332031 -8.78125 9.625 -9.0625 C 9.914062 -9.34375 10.28125 -9.484375 10.71875 -9.484375 L 14.84375 -9.484375 C 15.28125 -9.484375 15.640625 -9.335938 15.921875 -9.046875 C 16.203125 -8.753906 16.34375 -8.390625 16.34375 -7.953125 L 16.34375 -2.640625 C 16.34375 -2.304688 16.265625 -2.03125 16.109375 -1.8125 C 15.953125 -1.59375 15.769531 -1.414062 15.5625 -1.28125 C 14.789062 -0.8125 13.945312 -0.4375 13.03125 -0.15625 C 12.125 0.113281 11.171875 0.25 10.171875 0.25 Z M 10.171875 0.25 "/></g></g></g><g fill="#0097b2" fill-opacity="1"><g transform="translate(69.736792, 26.34797)"><g><path d="M 1.828125 0.046875 C 1.523438 0.046875 1.257812 -0.0078125 1.03125 -0.125 C 0.8125 -0.25 0.640625 -0.40625 0.515625 -0.59375 C 0.398438 -0.789062 0.34375 -0.992188 0.34375 -1.203125 L 0.34375 -1.234375 L 0.96875 -1.234375 L 0.96875 -1.21875 C 0.96875 -1.09375 1 -0.972656 1.0625 -0.859375 C 1.125 -0.742188 1.222656 -0.644531 1.359375 -0.5625 C 1.492188 -0.488281 1.65625 -0.453125 1.84375 -0.453125 C 2.070312 -0.453125 2.257812 -0.507812 2.40625 -0.625 C 2.5625 -0.738281 2.640625 -0.894531 2.640625 -1.09375 C 2.640625 -1.25 2.582031 -1.375 2.46875 -1.46875 C 2.351562 -1.570312 2.207031 -1.632812 2.03125 -1.65625 L 1.53125 -1.734375 C 1.21875 -1.785156 0.957031 -1.890625 0.75 -2.046875 C 0.539062 -2.210938 0.4375 -2.457031 0.4375 -2.78125 C 0.4375 -3.125 0.5625 -3.390625 0.8125 -3.578125 C 1.0625 -3.773438 1.382812 -3.875 1.78125 -3.875 C 2.070312 -3.875 2.320312 -3.820312 2.53125 -3.71875 C 2.738281 -3.613281 2.894531 -3.472656 3 -3.296875 C 3.113281 -3.117188 3.171875 -2.925781 3.171875 -2.71875 L 3.171875 -2.703125 L 2.546875 -2.703125 L 2.546875 -2.71875 C 2.546875 -2.8125 2.519531 -2.910156 2.46875 -3.015625 C 2.425781 -3.117188 2.34375 -3.207031 2.21875 -3.28125 C 2.101562 -3.363281 1.953125 -3.40625 1.765625 -3.40625 C 1.535156 -3.40625 1.347656 -3.347656 1.203125 -3.234375 C 1.066406 -3.117188 1 -2.972656 1 -2.796875 C 1 -2.640625 1.050781 -2.515625 1.15625 -2.421875 C 1.269531 -2.328125 1.410156 -2.265625 1.578125 -2.234375 L 2.125 -2.15625 C 2.4375 -2.101562 2.695312 -1.992188 2.90625 -1.828125 C 3.125 -1.660156 3.234375 -1.414062 3.234375 -1.09375 C 3.234375 -0.863281 3.171875 -0.660156 3.046875 -0.484375 C 2.929688 -0.316406 2.765625 -0.1875 2.546875 -0.09375 C 2.335938 0 2.097656 0.046875 1.828125 0.046875 Z M 1.828125 0.046875 "/></g></g></g><g fill="#0097b2" fill-opacity="1"><g transform="translate(73.296481, 26.34797)"><g><path d="M 0.59375 -3.78125 L 1.203125 -3.78125 L 1.203125 0 L 0.59375 0 Z M 0.890625 -4.484375 C 0.773438 -4.484375 0.675781 -4.519531 0.59375 -4.59375 C 0.519531 -4.675781 0.484375 -4.773438 0.484375 -4.890625 C 0.484375 -4.992188 0.519531 -5.082031 0.59375 -5.15625 C 0.675781 -5.238281 0.773438 -5.28125 0.890625 -5.28125 C 1.003906 -5.28125 1.097656 -5.238281 1.171875 -5.15625 C 1.253906 -5.082031 1.296875 -4.992188 1.296875 -4.890625 C 1.296875 -4.773438 1.253906 -4.675781 1.171875 -4.59375 C 1.097656 -4.519531 1.003906 -4.484375 0.890625 -4.484375 Z M 0.890625 -4.484375 "/></g></g></g><g fill="#0097b2" fill-opacity="1"><g transform="translate(75.090675, 26.34797)"><g><path d="M 0.53125 -3.78125 L 1.15625 -3.78125 L 1.15625 -3.09375 L 1.21875 -3.09375 C 1.3125 -3.3125 1.460938 -3.492188 1.671875 -3.640625 C 1.890625 -3.796875 2.15625 -3.875 2.46875 -3.875 C 2.789062 -3.875 3.054688 -3.796875 3.265625 -3.640625 C 3.484375 -3.492188 3.644531 -3.296875 3.75 -3.046875 C 3.851562 -2.804688 3.90625 -2.546875 3.90625 -2.265625 L 3.90625 0 L 3.28125 0 L 3.28125 -2.1875 C 3.28125 -2.550781 3.179688 -2.832031 2.984375 -3.03125 C 2.796875 -3.226562 2.546875 -3.328125 2.234375 -3.328125 C 1.910156 -3.328125 1.648438 -3.21875 1.453125 -3 C 1.253906 -2.789062 1.15625 -2.519531 1.15625 -2.1875 L 1.15625 0 L 0.53125 0 Z M 0.53125 -3.78125 "/></g></g></g><g fill="#0097b2" fill-opacity="1"><g transform="translate(79.482874, 26.34797)"><g><path d="M 2.15625 0.046875 C 1.757812 0.046875 1.425781 -0.046875 1.15625 -0.234375 C 0.882812 -0.421875 0.679688 -0.660156 0.546875 -0.953125 C 0.421875 -1.253906 0.359375 -1.578125 0.359375 -1.921875 C 0.359375 -2.253906 0.421875 -2.570312 0.546875 -2.875 C 0.679688 -3.175781 0.882812 -3.414062 1.15625 -3.59375 C 1.425781 -3.78125 1.757812 -3.875 2.15625 -3.875 C 2.644531 -3.875 3.023438 -3.734375 3.296875 -3.453125 C 3.578125 -3.171875 3.75 -2.828125 3.8125 -2.421875 L 3.203125 -2.421875 C 3.160156 -2.691406 3.050781 -2.914062 2.875 -3.09375 C 2.695312 -3.269531 2.457031 -3.359375 2.15625 -3.359375 C 1.769531 -3.359375 1.476562 -3.21875 1.28125 -2.9375 C 1.082031 -2.664062 0.984375 -2.328125 0.984375 -1.921875 C 0.984375 -1.503906 1.082031 -1.15625 1.28125 -0.875 C 1.476562 -0.601562 1.769531 -0.46875 2.15625 -0.46875 C 2.457031 -0.46875 2.695312 -0.550781 2.875 -0.71875 C 3.050781 -0.894531 3.160156 -1.125 3.203125 -1.40625 L 3.8125 -1.40625 C 3.75 -1 3.578125 -0.65625 3.296875 -0.375 C 3.023438 -0.09375 2.644531 0.046875 2.15625 0.046875 Z M 2.15625 0.046875 "/></g></g></g><g fill="#0097b2" fill-opacity="1"><g transform="translate(83.616706, 26.34797)"><g><path d="M 2.125 0.046875 C 1.738281 0.046875 1.410156 -0.046875 1.140625 -0.234375 C 0.878906 -0.421875 0.679688 -0.660156 0.546875 -0.953125 C 0.421875 -1.253906 0.359375 -1.578125 0.359375 -1.921875 C 0.359375 -2.253906 0.421875 -2.570312 0.546875 -2.875 C 0.679688 -3.175781 0.882812 -3.414062 1.15625 -3.59375 C 1.425781 -3.78125 1.753906 -3.875 2.140625 -3.875 C 2.640625 -3.875 3.039062 -3.703125 3.34375 -3.359375 C 3.65625 -3.023438 3.8125 -2.539062 3.8125 -1.90625 L 3.8125 -1.734375 L 0.984375 -1.734375 L 0.984375 -1.6875 C 0.984375 -1.476562 1.03125 -1.28125 1.125 -1.09375 C 1.21875 -0.90625 1.347656 -0.753906 1.515625 -0.640625 C 1.691406 -0.523438 1.894531 -0.46875 2.125 -0.46875 C 2.363281 -0.46875 2.570312 -0.53125 2.75 -0.65625 C 2.925781 -0.78125 3.0625 -0.945312 3.15625 -1.15625 L 3.765625 -1.15625 C 3.660156 -0.8125 3.46875 -0.523438 3.1875 -0.296875 C 2.914062 -0.0664062 2.5625 0.046875 2.125 0.046875 Z M 3.203125 -2.171875 C 3.179688 -2.597656 3.070312 -2.90625 2.875 -3.09375 C 2.6875 -3.289062 2.4375 -3.390625 2.125 -3.390625 C 1.789062 -3.390625 1.519531 -3.273438 1.3125 -3.046875 C 1.113281 -2.828125 1.007812 -2.535156 1 -2.171875 Z M 3.203125 -2.171875 "/></g></g></g><g fill="#0097b2" fill-opacity="1"><g transform="translate(87.800775, 26.34797)"><g/></g></g><g fill="#0097b2" fill-opacity="1"><g transform="translate(89.45144, 26.34797)"><g><path d="M 0.515625 -0.53125 L 1.71875 -1.625 L 1.84375 -1.734375 C 2.144531 -1.992188 2.382812 -2.210938 2.5625 -2.390625 C 2.738281 -2.566406 2.882812 -2.753906 3 -2.953125 C 3.113281 -3.160156 3.171875 -3.378906 3.171875 -3.609375 C 3.171875 -3.878906 3.085938 -4.109375 2.921875 -4.296875 C 2.765625 -4.484375 2.519531 -4.578125 2.1875 -4.578125 C 1.78125 -4.578125 1.503906 -4.46875 1.359375 -4.25 C 1.222656 -4.03125 1.15625 -3.785156 1.15625 -3.515625 L 1.15625 -3.46875 L 0.546875 -3.46875 C 0.546875 -3.75 0.597656 -4.015625 0.703125 -4.265625 C 0.816406 -4.515625 0.992188 -4.71875 1.234375 -4.875 C 1.484375 -5.039062 1.800781 -5.125 2.1875 -5.125 C 2.539062 -5.125 2.835938 -5.050781 3.078125 -4.90625 C 3.316406 -4.769531 3.488281 -4.585938 3.59375 -4.359375 C 3.707031 -4.128906 3.765625 -3.882812 3.765625 -3.625 C 3.765625 -3.332031 3.703125 -3.0625 3.578125 -2.8125 C 3.453125 -2.570312 3.296875 -2.351562 3.109375 -2.15625 C 2.921875 -1.96875 2.664062 -1.734375 2.34375 -1.453125 L 1.359375 -0.59375 L 1.359375 -0.546875 L 3.828125 -0.546875 L 3.828125 0 L 0.515625 0 Z M 0.515625 -0.53125 "/></g></g></g><g fill="#0097b2" fill-opacity="1"><g transform="translate(93.649864, 26.34797)"><g><path d="M 2.171875 0.078125 C 1.566406 0.078125 1.113281 -0.128906 0.8125 -0.546875 C 0.507812 -0.960938 0.359375 -1.5 0.359375 -2.15625 L 0.359375 -2.90625 C 0.359375 -3.5625 0.507812 -4.09375 0.8125 -4.5 C 1.113281 -4.914062 1.566406 -5.125 2.171875 -5.125 C 2.765625 -5.125 3.207031 -4.914062 3.5 -4.5 C 3.800781 -4.09375 3.953125 -3.5625 3.953125 -2.90625 L 3.953125 -2.15625 C 3.953125 -1.5 3.800781 -0.960938 3.5 -0.546875 C 3.207031 -0.128906 2.765625 0.078125 2.171875 0.078125 Z M 2.171875 -0.46875 C 2.535156 -0.46875 2.8125 -0.609375 3 -0.890625 C 3.195312 -1.179688 3.296875 -1.613281 3.296875 -2.1875 L 3.296875 -2.875 C 3.296875 -3.4375 3.195312 -3.859375 3 -4.140625 C 2.8125 -4.429688 2.535156 -4.578125 2.171875 -4.578125 C 1.796875 -4.578125 1.507812 -4.429688 1.3125 -4.140625 C 1.125 -3.859375 1.03125 -3.4375 1.03125 -2.875 L 1.03125 -2.1875 C 1.03125 -1.613281 1.125 -1.179688 1.3125 -0.890625 C 1.507812 -0.609375 1.796875 -0.46875 2.171875 -0.46875 Z M 2.171875 -0.46875 "/></g></g></g><g fill="#0097b2" fill-opacity="1"><g transform="translate(97.991826, 26.34797)"><g><path d="M 0.515625 -0.53125 L 1.71875 -1.625 L 1.84375 -1.734375 C 2.144531 -1.992188 2.382812 -2.210938 2.5625 -2.390625 C 2.738281 -2.566406 2.882812 -2.753906 3 -2.953125 C 3.113281 -3.160156 3.171875 -3.378906 3.171875 -3.609375 C 3.171875 -3.878906 3.085938 -4.109375 2.921875 -4.296875 C 2.765625 -4.484375 2.519531 -4.578125 2.1875 -4.578125 C 1.78125 -4.578125 1.503906 -4.46875 1.359375 -4.25 C 1.222656 -4.03125 1.15625 -3.785156 1.15625 -3.515625 L 1.15625 -3.46875 L 0.546875 -3.46875 C 0.546875 -3.75 0.597656 -4.015625 0.703125 -4.265625 C 0.816406 -4.515625 0.992188 -4.71875 1.234375 -4.875 C 1.484375 -5.039062 1.800781 -5.125 2.1875 -5.125 C 2.539062 -5.125 2.835938 -5.050781 3.078125 -4.90625 C 3.316406 -4.769531 3.488281 -4.585938 3.59375 -4.359375 C 3.707031 -4.128906 3.765625 -3.882812 3.765625 -3.625 C 3.765625 -3.332031 3.703125 -3.0625 3.578125 -2.8125 C 3.453125 -2.570312 3.296875 -2.351562 3.109375 -2.15625 C 2.921875 -1.96875 2.664062 -1.734375 2.34375 -1.453125 L 1.359375 -0.59375 L 1.359375 -0.546875 L 3.828125 -0.546875 L 3.828125 0 L 0.515625 0 Z M 0.515625 -0.53125 "/></g></g></g><g fill="#0097b2" fill-opacity="1"><g transform="translate(102.19025, 26.34797)"><g><path d="M 0.515625 -0.53125 L 1.71875 -1.625 L 1.84375 -1.734375 C 2.144531 -1.992188 2.382812 -2.210938 2.5625 -2.390625 C 2.738281 -2.566406 2.882812 -2.753906 3 -2.953125 C 3.113281 -3.160156 3.171875 -3.378906 3.171875 -3.609375 C 3.171875 -3.878906 3.085938 -4.109375 2.921875 -4.296875 C 2.765625 -4.484375 2.519531 -4.578125 2.1875 -4.578125 C 1.78125 -4.578125 1.503906 -4.46875 1.359375 -4.25 C 1.222656 -4.03125 1.15625 -3.785156 1.15625 -3.515625 L 1.15625 -3.46875 L 0.546875 -3.46875 C 0.546875 -3.75 0.597656 -4.015625 0.703125 -4.265625 C 0.816406 -4.515625 0.992188 -4.71875 1.234375 -4.875 C 1.484375 -5.039062 1.800781 -5.125 2.1875 -5.125 C 2.539062 -5.125 2.835938 -5.050781 3.078125 -4.90625 C 3.316406 -4.769531 3.488281 -4.585938 3.59375 -4.359375 C 3.707031 -4.128906 3.765625 -3.882812 3.765625 -3.625 C 3.765625 -3.332031 3.703125 -3.0625 3.578125 -2.8125 C 3.453125 -2.570312 3.296875 -2.351562 3.109375 -2.15625 C 2.921875 -1.96875 2.664062 -1.734375 2.34375 -1.453125 L 1.359375 -0.59375 L 1.359375 -0.546875 L 3.828125 -0.546875 L 3.828125 0 L 0.515625 0 Z M 0.515625 -0.53125 "/></g></g></g></svg>