<?xml version="1.0" encoding="UTF-8"?>
<svg xmlns="http://www.w3.org/2000/svg" xmlns:xlink="http://www.w3.org/1999/xlink" width="41px" height="px" viewBox="0 0 41 41" version="1.1">
<defs>
<clipPath id="clip1">
  <path d="M 20.5 0 C 9.179688 0 0 9.179688 0 20.5 C 0 31.820312 9.179688 41 20.5 41 C 31.820312 41 41 31.820312 41 20.5 C 41 9.179688 31.820312 0 20.5 0 Z M 20.5 0 "/>
</clipPath>
<clipPath id="clip2">
  <path d="M 8.128906 8.128906 L 32.894531 8.128906 L 32.894531 32.894531 L 8.128906 32.894531 Z M 8.128906 8.128906 "/>
</clipPath>
</defs>
<g id="surface1">
<g clip-path="url(#clip1)" clip-rule="nonzero">
<path style="fill:none;stroke-width:26;stroke-linecap:butt;stroke-linejoin:miter;stroke:rgb(100%,100%,100%);stroke-opacity:1;stroke-miterlimit:4;" d="M 249.999994 -0.000006 C 111.947403 -0.000006 -0.000006 111.947403 -0.000006 249.999994 C -0.000006 388.052585 111.947403 499.999994 249.999994 499.999994 C 388.052585 499.999994 499.999994 388.052585 499.999994 249.999994 C 499.999994 111.947403 388.052585 -0.000006 249.999994 -0.000006 Z M 249.999994 -0.000006 " transform="matrix(0.082,0,0,0.082,0.000000492,0.000000492)"/>
</g>
<g clip-path="url(#clip2)" clip-rule="nonzero">
<path style=" stroke:none;fill-rule:nonzero;fill:rgb(100%,100%,100%);fill-opacity:1;" d="M 32.492188 32.894531 L 8.535156 32.894531 C 8.316406 32.894531 8.140625 32.71875 8.140625 32.5 L 8.140625 30.261719 C 8.140625 26.539062 11.171875 23.507812 14.894531 23.507812 L 26.132812 23.507812 C 29.855469 23.507812 32.886719 26.539062 32.886719 30.261719 L 32.886719 32.5 C 32.886719 32.71875 32.710938 32.894531 32.492188 32.894531 Z M 20.515625 22.453125 C 16.566406 22.453125 13.351562 19.242188 13.351562 15.292969 C 13.351562 11.34375 16.566406 8.128906 20.515625 8.128906 C 24.460938 8.128906 27.675781 11.34375 27.675781 15.292969 C 27.675781 19.242188 24.460938 22.453125 20.515625 22.453125 Z M 20.515625 22.453125 "/>
</g>
</g>
</svg>
