<?xml version="1.0" encoding="UTF-8"?>
<svg xmlns="http://www.w3.org/2000/svg" xmlns:xlink="http://www.w3.org/1999/xlink" width="41px" height="px" viewBox="0 0 41 41" version="1.1">
<defs>
<clipPath id="clip1">
  <path d="M 20.5 0 C 9.179688 0 0 9.179688 0 20.5 C 0 31.820312 9.179688 41 20.5 41 C 31.820312 41 41 31.820312 41 20.5 C 41 9.179688 31.820312 0 20.5 0 Z M 20.5 0 "/>
</clipPath>
<clipPath id="clip2">
  <path d="M 7.867188 7.867188 L 33.121094 7.867188 L 33.121094 33.121094 L 7.867188 33.121094 Z M 7.867188 7.867188 "/>
</clipPath>
</defs>
<g id="surface1">
<g clip-path="url(#clip1)" clip-rule="nonzero">
<path style="fill:none;stroke-width:26;stroke-linecap:butt;stroke-linejoin:miter;stroke:rgb(100%,100%,100%);stroke-opacity:1;stroke-miterlimit:4;" d="M 249.999994 -0.000006 C 111.947403 -0.000006 -0.000006 111.947403 -0.000006 249.999994 C -0.000006 388.052585 111.947403 499.999994 249.999994 499.999994 C 388.052585 499.999994 499.999994 388.052585 499.999994 249.999994 C 499.999994 111.947403 388.052585 -0.000006 249.999994 -0.000006 Z M 249.999994 -0.000006 " transform="matrix(0.082,0,0,0.082,0.000000492,0.000000492)"/>
</g>
<g clip-path="url(#clip2)" clip-rule="nonzero">
<path style=" stroke:none;fill-rule:nonzero;fill:rgb(100%,100%,100%);fill-opacity:1;" d="M 32.808594 26.40625 C 32.992188 26.898438 33.101562 27.425781 33.117188 27.980469 C 33.121094 28.035156 33.121094 28.085938 33.121094 28.140625 C 33.121094 30.890625 30.890625 33.121094 28.140625 33.121094 C 16.941406 33.121094 7.867188 24.042969 7.867188 12.84375 C 7.867188 10.097656 10.097656 7.867188 12.84375 7.867188 C 12.898438 7.867188 12.953125 7.867188 13.003906 7.871094 C 13.558594 7.886719 14.089844 7.992188 14.582031 8.179688 L 16.453125 16.273438 C 16.453125 16.277344 16.449219 16.277344 16.445312 16.28125 L 13.015625 17.820312 L 13.007812 17.824219 C 14.582031 22.617188 18.371094 26.40625 23.160156 27.980469 L 23.164062 27.96875 L 24.707031 24.539062 L 32.808594 26.40625 "/>
</g>
</g>
</svg>
