<?xml version="1.0" encoding="UTF-8"?>
<svg xmlns="http://www.w3.org/2000/svg" xmlns:xlink="http://www.w3.org/1999/xlink" width="25px" height="25px" viewBox="0 0 25 25" version="1.1">
<g id="surface1">
<path style=" stroke:none;fill-rule:nonzero;fill:rgb(100%,100%,100%);fill-opacity:1;" d="M 10.324219 19.964844 C 10.128906 19.964844 9.933594 19.957031 9.738281 19.945312 C 9.546875 19.933594 9.351562 19.914062 9.15625 19.890625 C 8.964844 19.867188 8.769531 19.839844 8.578125 19.804688 C 8.386719 19.765625 8.195312 19.726562 8.007812 19.679688 C 7.816406 19.632812 7.628906 19.578125 7.441406 19.519531 C 7.257812 19.460938 7.074219 19.394531 6.890625 19.324219 C 6.707031 19.253906 6.527344 19.179688 6.351562 19.097656 C 6.171875 19.015625 6 18.929688 5.828125 18.839844 C 5.65625 18.746094 5.484375 18.648438 5.320312 18.546875 C 5.152344 18.445312 4.988281 18.335938 4.832031 18.226562 C 4.671875 18.113281 4.515625 17.996094 4.363281 17.875 C 4.210938 17.75 4.0625 17.625 3.917969 17.492188 C 3.773438 17.363281 3.632812 17.226562 3.496094 17.085938 C 3.359375 16.949219 3.226562 16.804688 3.097656 16.65625 C 2.972656 16.507812 2.847656 16.355469 2.730469 16.203125 C 2.613281 16.046875 2.5 15.886719 2.390625 15.726562 C 2.28125 15.5625 2.179688 15.398438 2.078125 15.230469 C 1.980469 15.058594 1.886719 14.890625 1.800781 14.714844 C 1.714844 14.539062 1.628906 14.363281 1.554688 14.183594 C 1.476562 14.003906 1.40625 13.824219 1.339844 13.640625 C 1.273438 13.457031 1.214844 13.269531 1.160156 13.082031 C 1.105469 12.894531 1.054688 12.707031 1.011719 12.515625 C 0.972656 12.324219 0.933594 12.132812 0.902344 11.941406 C 0.871094 11.746094 0.847656 11.554688 0.828125 11.359375 C 0.808594 11.164062 0.796875 10.972656 0.789062 10.777344 C 0.78125 10.582031 0.78125 10.386719 0.785156 10.191406 C 0.789062 9.996094 0.800781 9.800781 0.816406 9.605469 C 0.832031 9.410156 0.855469 9.21875 0.886719 9.023438 C 0.914062 8.832031 0.949219 8.640625 0.988281 8.449219 C 1.027344 8.257812 1.074219 8.066406 1.128906 7.878906 C 1.179688 7.691406 1.238281 7.503906 1.300781 7.320312 C 1.363281 7.136719 1.433594 6.953125 1.507812 6.773438 C 1.582031 6.59375 1.664062 6.414062 1.75 6.238281 C 1.835938 6.0625 1.925781 5.890625 2.023438 5.722656 C 2.117188 5.550781 2.21875 5.386719 2.324219 5.222656 C 2.433594 5.058594 2.542969 4.898438 2.660156 4.742188 C 2.777344 4.582031 2.898438 4.429688 3.023438 4.28125 C 3.148438 4.132812 3.277344 3.988281 3.414062 3.84375 C 3.546875 3.703125 3.6875 3.566406 3.832031 3.433594 C 3.972656 3.300781 4.121094 3.171875 4.269531 3.050781 C 4.421875 2.925781 4.578125 2.804688 4.734375 2.691406 C 4.894531 2.578125 5.054688 2.46875 5.21875 2.363281 C 5.382812 2.257812 5.550781 2.160156 5.722656 2.066406 C 5.894531 1.972656 6.070312 1.882812 6.246094 1.800781 C 6.421875 1.714844 6.601562 1.640625 6.78125 1.566406 C 6.964844 1.492188 7.144531 1.425781 7.332031 1.367188 C 7.515625 1.304688 7.703125 1.25 7.894531 1.199219 C 8.082031 1.148438 8.273438 1.105469 8.464844 1.066406 C 8.65625 1.03125 8.847656 1 9.039062 0.972656 C 9.234375 0.945312 9.429688 0.925781 9.625 0.910156 C 9.816406 0.898438 10.011719 0.890625 10.207031 0.886719 C 10.402344 0.882812 10.597656 0.886719 10.792969 0.898438 C 10.988281 0.90625 11.183594 0.921875 11.375 0.945312 C 11.570312 0.964844 11.765625 0.992188 11.957031 1.027344 C 12.148438 1.058594 12.339844 1.101562 12.53125 1.144531 C 12.71875 1.191406 12.90625 1.242188 13.09375 1.296875 C 13.28125 1.355469 13.464844 1.417969 13.648438 1.484375 C 13.832031 1.554688 14.011719 1.628906 14.191406 1.707031 C 14.371094 1.785156 14.546875 1.871094 14.71875 1.960938 C 14.890625 2.050781 15.0625 2.144531 15.230469 2.246094 C 15.398438 2.347656 15.5625 2.453125 15.722656 2.5625 C 15.882812 2.671875 16.039062 2.789062 16.195312 2.910156 C 16.347656 3.027344 16.496094 3.152344 16.644531 3.28125 C 16.789062 3.414062 16.933594 3.546875 17.070312 3.683594 C 17.234375 3.851562 17.394531 4.019531 17.546875 4.199219 C 17.703125 4.375 17.847656 4.558594 17.988281 4.746094 C 18.128906 4.933594 18.257812 5.128906 18.386719 5.324219 C 18.511719 5.523438 18.628906 5.726562 18.738281 5.933594 C 18.847656 6.140625 18.953125 6.347656 19.046875 6.5625 C 19.140625 6.777344 19.230469 6.996094 19.308594 7.214844 C 19.386719 7.4375 19.457031 7.660156 19.519531 7.882812 C 19.582031 8.109375 19.636719 8.339844 19.683594 8.566406 C 19.730469 8.796875 19.765625 9.027344 19.792969 9.261719 C 19.824219 9.492188 19.84375 9.726562 19.855469 9.960938 C 19.867188 10.195312 19.871094 10.429688 19.863281 10.664062 C 19.859375 10.898438 19.84375 11.128906 19.820312 11.363281 C 19.796875 11.597656 19.765625 11.828125 19.726562 12.058594 C 19.6875 12.289062 19.636719 12.519531 19.582031 12.746094 C 19.523438 12.972656 19.457031 13.199219 19.386719 13.421875 C 19.3125 13.644531 19.230469 13.863281 19.140625 14.078125 C 19.050781 14.296875 18.953125 14.507812 18.847656 14.71875 C 18.742188 14.925781 18.628906 15.132812 18.507812 15.332031 C 18.390625 15.535156 18.261719 15.730469 18.125 15.921875 C 17.992188 16.113281 17.847656 16.300781 17.699219 16.480469 C 17.550781 16.660156 17.398438 16.835938 17.234375 17.007812 C 17.074219 17.175781 16.90625 17.339844 16.734375 17.496094 C 16.558594 17.652344 16.378906 17.804688 16.195312 17.949219 C 16.011719 18.09375 15.820312 18.230469 15.625 18.359375 C 15.429688 18.488281 15.230469 18.613281 15.027344 18.726562 C 14.824219 18.84375 14.617188 18.949219 14.402344 19.050781 C 14.191406 19.148438 13.976562 19.242188 13.757812 19.328125 C 13.539062 19.410156 13.320312 19.488281 13.09375 19.554688 C 12.871094 19.621094 12.644531 19.683594 12.414062 19.734375 C 12.1875 19.785156 11.957031 19.828125 11.726562 19.859375 C 11.492188 19.894531 11.261719 19.921875 11.027344 19.9375 C 10.792969 19.957031 10.558594 19.964844 10.324219 19.964844 Z M 10.324219 2.988281 C 10.183594 2.988281 10.039062 2.992188 9.898438 3 C 9.757812 3.007812 9.613281 3.019531 9.472656 3.035156 C 9.332031 3.050781 9.191406 3.070312 9.050781 3.09375 C 8.910156 3.117188 8.773438 3.144531 8.632812 3.179688 C 8.496094 3.210938 8.359375 3.246094 8.222656 3.285156 C 8.085938 3.324219 7.949219 3.371094 7.816406 3.417969 C 7.679688 3.464844 7.550781 3.515625 7.417969 3.570312 C 7.285156 3.625 7.15625 3.6875 7.03125 3.75 C 6.902344 3.8125 6.777344 3.878906 6.652344 3.945312 C 6.527344 4.015625 6.40625 4.089844 6.289062 4.167969 C 6.167969 4.242188 6.050781 4.324219 5.933594 4.40625 C 5.820312 4.492188 5.707031 4.578125 5.597656 4.667969 C 5.488281 4.757812 5.378906 4.851562 5.273438 4.945312 C 5.171875 5.042969 5.070312 5.140625 4.96875 5.246094 C 4.871094 5.347656 4.773438 5.453125 4.679688 5.558594 C 4.589844 5.667969 4.5 5.777344 4.410156 5.890625 C 4.324219 6 4.242188 6.117188 4.160156 6.234375 C 4.082031 6.351562 4.003906 6.472656 3.929688 6.59375 C 3.859375 6.714844 3.789062 6.839844 3.722656 6.964844 C 3.65625 7.089844 3.59375 7.21875 3.535156 7.347656 C 3.476562 7.476562 3.421875 7.609375 3.367188 7.742188 C 3.316406 7.875 3.269531 8.007812 3.226562 8.140625 C 3.183594 8.277344 3.144531 8.414062 3.105469 8.550781 C 3.070312 8.6875 3.039062 8.828125 3.011719 8.96875 C 2.984375 9.105469 2.960938 9.246094 2.9375 9.386719 C 2.917969 9.527344 2.902344 9.667969 2.890625 9.8125 C 2.878906 9.953125 2.871094 10.09375 2.867188 10.238281 C 2.863281 10.378906 2.863281 10.519531 2.871094 10.664062 C 2.875 10.804688 2.882812 10.949219 2.894531 11.089844 C 2.90625 11.230469 2.925781 11.371094 2.945312 11.511719 C 2.964844 11.652344 2.992188 11.792969 3.019531 11.933594 C 3.046875 12.070312 3.082031 12.210938 3.117188 12.347656 C 3.152344 12.484375 3.195312 12.621094 3.238281 12.757812 C 3.285156 12.890625 3.332031 13.023438 3.382812 13.15625 C 3.4375 13.289062 3.492188 13.421875 3.550781 13.550781 C 3.609375 13.679688 3.675781 13.804688 3.742188 13.929688 C 3.808594 14.054688 3.878906 14.179688 3.953125 14.300781 C 4.027344 14.421875 4.105469 14.542969 4.183594 14.660156 C 4.265625 14.777344 4.347656 14.890625 4.4375 15.003906 C 4.523438 15.113281 4.613281 15.226562 4.707031 15.332031 C 4.800781 15.4375 4.898438 15.542969 5 15.644531 C 5.097656 15.746094 5.199219 15.84375 5.304688 15.941406 C 5.410156 16.035156 5.519531 16.128906 5.628906 16.21875 C 5.738281 16.308594 5.851562 16.394531 5.96875 16.476562 C 6.082031 16.558594 6.203125 16.636719 6.320312 16.714844 C 6.441406 16.789062 6.5625 16.863281 6.6875 16.933594 C 6.8125 17 6.9375 17.066406 7.066406 17.128906 C 7.195312 17.191406 7.324219 17.25 7.457031 17.304688 C 7.585938 17.359375 7.71875 17.410156 7.855469 17.457031 C 7.988281 17.503906 8.125 17.546875 8.261719 17.585938 C 8.398438 17.625 8.535156 17.660156 8.671875 17.691406 C 8.8125 17.722656 8.953125 17.75 9.09375 17.773438 C 9.230469 17.796875 9.375 17.816406 9.515625 17.828125 C 9.65625 17.84375 9.796875 17.855469 9.941406 17.863281 C 10.082031 17.871094 10.222656 17.871094 10.367188 17.871094 C 10.507812 17.871094 10.648438 17.867188 10.792969 17.855469 C 10.933594 17.847656 11.074219 17.832031 11.214844 17.816406 C 11.359375 17.800781 11.5 17.777344 11.636719 17.753906 C 11.777344 17.726562 11.917969 17.699219 12.054688 17.664062 C 12.195312 17.628906 12.332031 17.59375 12.464844 17.550781 C 12.601562 17.511719 12.738281 17.464844 12.871094 17.417969 C 13.003906 17.367188 13.136719 17.316406 13.265625 17.257812 C 13.398438 17.203125 13.527344 17.140625 13.652344 17.078125 C 13.78125 17.015625 13.90625 16.945312 14.027344 16.875 C 14.152344 16.804688 14.273438 16.730469 14.390625 16.652344 C 14.511719 16.574219 14.625 16.492188 14.742188 16.40625 C 14.855469 16.324219 14.96875 16.234375 15.078125 16.144531 C 15.183594 16.054688 15.292969 15.957031 15.394531 15.863281 C 15.5 15.765625 15.601562 15.664062 15.699219 15.5625 C 15.796875 15.457031 15.890625 15.351562 15.984375 15.246094 C 16.074219 15.136719 16.164062 15.023438 16.25 14.910156 C 16.335938 14.796875 16.417969 14.683594 16.496094 14.5625 C 16.574219 14.445312 16.652344 14.324219 16.722656 14.203125 C 16.796875 14.078125 16.863281 13.957031 16.929688 13.828125 C 16.992188 13.703125 17.054688 13.574219 17.113281 13.445312 C 17.171875 13.3125 17.222656 13.183594 17.273438 13.050781 C 17.324219 12.917969 17.371094 12.78125 17.414062 12.644531 C 17.457031 12.511719 17.492188 12.375 17.527344 12.234375 C 17.5625 12.097656 17.59375 11.960938 17.621094 11.820312 C 17.644531 11.679688 17.667969 11.539062 17.6875 11.398438 C 17.707031 11.257812 17.71875 11.117188 17.730469 10.972656 C 17.742188 10.832031 17.746094 10.691406 17.75 10.546875 C 17.75 10.40625 17.75 10.265625 17.746094 10.121094 C 17.738281 9.980469 17.726562 9.839844 17.714844 9.695312 C 17.699219 9.554688 17.683594 9.414062 17.660156 9.273438 C 17.636719 9.132812 17.613281 8.992188 17.582031 8.855469 C 17.550781 8.714844 17.519531 8.578125 17.480469 8.441406 C 17.441406 8.304688 17.398438 8.167969 17.355469 8.03125 C 17.308594 7.898438 17.257812 7.765625 17.207031 7.632812 C 17.152344 7.5 17.09375 7.371094 17.035156 7.242188 C 16.972656 7.113281 16.910156 6.988281 16.839844 6.863281 C 16.773438 6.738281 16.699219 6.617188 16.625 6.496094 C 16.550781 6.375 16.472656 6.253906 16.390625 6.140625 C 16.308594 6.023438 16.222656 5.910156 16.132812 5.796875 C 16.046875 5.6875 15.953125 5.578125 15.859375 5.472656 C 15.765625 5.367188 15.667969 5.261719 15.566406 5.164062 C 15.394531 4.992188 15.214844 4.828125 15.027344 4.671875 C 14.839844 4.519531 14.644531 4.375 14.441406 4.238281 C 14.242188 4.105469 14.03125 3.980469 13.820312 3.867188 C 13.605469 3.75 13.386719 3.648438 13.160156 3.554688 C 12.9375 3.460938 12.710938 3.378906 12.476562 3.308594 C 12.246094 3.238281 12.007812 3.179688 11.769531 3.132812 C 11.53125 3.082031 11.292969 3.046875 11.050781 3.023438 C 10.808594 3 10.566406 2.988281 10.324219 2.988281 Z M 10.324219 2.988281 "/>
<path style=" stroke:none;fill-rule:nonzero;fill:rgb(100%,100%,100%);fill-opacity:1;" d="M 23.847656 25 C 23.707031 25 23.574219 24.972656 23.445312 24.917969 C 23.320312 24.863281 23.207031 24.789062 23.109375 24.691406 L 15.585938 17.175781 C 15.539062 17.125 15.496094 17.074219 15.457031 17.015625 C 15.417969 16.957031 15.386719 16.898438 15.359375 16.835938 C 15.332031 16.769531 15.3125 16.707031 15.300781 16.636719 C 15.285156 16.570312 15.28125 16.503906 15.28125 16.433594 C 15.28125 16.363281 15.285156 16.296875 15.300781 16.230469 C 15.3125 16.160156 15.332031 16.09375 15.359375 16.03125 C 15.386719 15.96875 15.417969 15.90625 15.457031 15.851562 C 15.496094 15.792969 15.539062 15.742188 15.585938 15.691406 C 15.636719 15.644531 15.6875 15.601562 15.746094 15.5625 C 15.804688 15.523438 15.863281 15.492188 15.925781 15.464844 C 15.992188 15.4375 16.054688 15.417969 16.125 15.40625 C 16.191406 15.390625 16.257812 15.382812 16.328125 15.382812 C 16.398438 15.382812 16.464844 15.390625 16.535156 15.40625 C 16.601562 15.417969 16.667969 15.4375 16.730469 15.464844 C 16.792969 15.492188 16.855469 15.523438 16.910156 15.5625 C 16.96875 15.601562 17.023438 15.644531 17.070312 15.691406 L 24.585938 23.210938 C 24.621094 23.25 24.65625 23.289062 24.6875 23.328125 C 24.714844 23.371094 24.742188 23.414062 24.769531 23.460938 C 24.792969 23.503906 24.8125 23.550781 24.828125 23.601562 C 24.847656 23.648438 24.859375 23.699219 24.871094 23.75 C 24.878906 23.800781 24.886719 23.851562 24.890625 23.902344 C 24.890625 23.953125 24.890625 24.003906 24.886719 24.054688 C 24.878906 24.105469 24.871094 24.15625 24.859375 24.207031 C 24.847656 24.257812 24.832031 24.304688 24.8125 24.351562 C 24.792969 24.398438 24.769531 24.445312 24.742188 24.488281 C 24.714844 24.535156 24.6875 24.574219 24.652344 24.617188 C 24.621094 24.65625 24.585938 24.691406 24.546875 24.726562 C 24.511719 24.761719 24.46875 24.792969 24.425781 24.820312 C 24.382812 24.851562 24.339844 24.875 24.292969 24.898438 C 24.246094 24.921875 24.199219 24.9375 24.148438 24.953125 C 24.101562 24.96875 24.050781 24.980469 24 24.988281 C 23.949219 24.996094 23.898438 25 23.847656 25 Z M 23.847656 25 "/>
</g>
</svg>
